<?xml version="1.0" standalone="no"?>
<!DOCTYPE svg PUBLIC "-//W3C//DTD SVG 20010904//EN"
 "http://www.w3.org/TR/2001/REC-SVG-20010904/DTD/svg10.dtd">
<svg version="1.0" xmlns="http://www.w3.org/2000/svg"
 width="555.000000pt" height="555.000000pt" viewBox="0 0 555.000000 555.000000"
 preserveAspectRatio="xMidYMid meet">
<metadata>
Created by potrace 1.11, written by Peter Selinger 2001-2013
</metadata>
<g transform="translate(0.000000,555.000000) scale(0.100000,-0.100000)"
fill="#000000" stroke="none">
<path d="M2528 5533 c-33 -21 -58 -65 -98 -173 -25 -68 -31 -99 -30 -160 0
-77 0 -120 -3 -365 -2 -130 0 -147 27 -230 16 -49 35 -109 42 -131 16 -51 37
-170 32 -183 -1 -5 -28 1 -58 14 -39 16 -85 51 -159 122 -109 103 -162 140
-251 174 -53 20 -152 30 -165 17 -22 -21 63 -120 155 -179 26 -17 104 -93 130
-125 57 -74 121 -142 163 -175 39 -31 56 -39 88 -37 21 1 42 -2 46 -5 3 -4
-18 -7 -48 -8 -30 0 -70 -2 -89 -4 -99 -8 -191 -16 -207 -19 -10 -2 -43 -7
-74 -10 -31 -4 -66 -8 -77 -11 -11 -2 -36 -6 -56 -9 -19 -3 -55 -10 -78 -15
-24 -6 -54 -12 -68 -15 -173 -32 -433 -128 -508 -187 -209 -162 -355 -457
-437 -884 -30 -161 -33 -243 -34 -950 0 -778 2 -806 55 -976 119 -382 515
-773 919 -908 50 -16 101 -32 115 -35 14 -2 50 -10 80 -16 83 -16 101 -19 155
-25 28 -2 79 -8 115 -12 146 -17 1037 -8 1215 12 278 32 314 38 465 71 444 99
705 284 810 573 26 71 36 112 57 241 11 63 10 1940 -1 2020 -4 36 -10 72 -11
81 -2 9 -6 40 -10 70 -9 71 -69 278 -103 354 -100 227 -254 396 -448 493 -131
66 -396 132 -584 147 -19 1 -73 6 -120 10 -77 7 -124 10 -229 14 l-34 1 44 32
c51 37 86 73 211 217 74 85 99 124 147 225 32 66 70 132 85 145 14 14 26 28
26 31 0 12 -106 3 -133 -12 -14 -7 -54 -40 -90 -73 -35 -33 -88 -79 -118 -102
-30 -23 -85 -74 -122 -112 -38 -39 -96 -91 -130 -117 -60 -45 -157 -100 -157
-89 0 8 29 52 66 102 31 40 57 105 69 168 19 105 20 502 1 570 -25 91 -114
295 -150 344 -31 42 -74 81 -90 81 -2 0 4 -22 14 -49 39 -101 49 -179 45 -341
-3 -85 -7 -168 -10 -185 -2 -16 -7 -57 -10 -90 -3 -33 -7 -76 -10 -95 -2 -19
-7 -64 -10 -99 -4 -34 -18 -93 -32 -130 -13 -36 -29 -82 -35 -101 -21 -71 -40
-109 -62 -124 l-23 -14 3 61 c1 37 -6 86 -18 126 -41 139 -47 162 -53 218 -12
115 -26 187 -51 257 -94 260 -115 469 -58 578 17 33 4 37 -38 11z"/>
</g>
</svg>
