<?xml version="1.0" standalone="no"?>
<!DOCTYPE svg PUBLIC "-//W3C//DTD SVG 20010904//EN"
 "http://www.w3.org/TR/2001/REC-SVG-20010904/DTD/svg10.dtd">
<svg version="1.0" xmlns="http://www.w3.org/2000/svg"
 width="556.000000pt" height="556.000000pt" viewBox="0 0 556.000000 556.000000"
 preserveAspectRatio="xMidYMid meet">
<metadata>
Created by potrace 1.11, written by Peter Selinger 2001-2013
</metadata>
<g transform="translate(0.000000,556.000000) scale(0.100000,-0.100000)"
fill="#000000" stroke="none">
<path d="M2526 5517 c-18 -20 -47 -75 -70 -132 l-38 -99 -4 -220 c-7 -360 -9
-335 35 -479 42 -138 57 -200 65 -261 5 -43 -6 -46 -67 -15 -51 26 -78 48
-183 149 -87 84 -179 138 -269 159 -165 38 -148 -33 42 -178 34 -26 86 -76
115 -111 98 -115 178 -198 209 -213 17 -8 48 -13 70 -12 21 2 37 -1 34 -5 -2
-4 -26 -8 -52 -8 -66 -2 -215 -12 -233 -17 -8 -2 -44 -7 -80 -10 -36 -4 -72
-8 -80 -10 -8 -1 -35 -6 -60 -10 -25 -4 -52 -9 -60 -10 -150 -28 -210 -42
-304 -70 -320 -97 -450 -196 -583 -445 -77 -144 -158 -391 -188 -570 -3 -19
-8 -42 -10 -50 -2 -8 -7 -40 -10 -70 -3 -30 -9 -68 -12 -85 -6 -36 -6 -1477 1
-1520 51 -344 216 -619 516 -863 36 -29 70 -57 77 -62 32 -26 156 -101 219
-133 68 -34 230 -92 283 -102 14 -2 51 -9 81 -15 30 -6 73 -13 95 -16 22 -3
51 -7 65 -10 155 -26 1033 -26 1285 1 22 2 67 7 100 10 229 24 506 83 658 140
100 37 231 106 286 150 197 158 289 337 319 620 4 39 7 489 6 1000 0 907 -1
934 -22 1071 -54 344 -152 566 -331 745 -161 161 -312 229 -646 293 -12 2 -48
7 -80 11 -33 4 -69 9 -80 11 -27 5 -282 22 -353 23 l-34 1 49 38 c52 42 107
100 221 234 53 63 86 115 123 194 28 60 67 128 86 152 l35 43 -60 -4 c-65 -4
-85 -14 -147 -73 -23 -22 -65 -58 -95 -82 -30 -24 -102 -89 -160 -145 -101
-98 -219 -186 -268 -202 -22 -6 -23 -5 -11 17 7 12 27 43 45 66 36 48 68 124
78 187 14 88 15 499 2 555 -12 49 -73 203 -121 303 -18 39 -97 127 -114 127
-5 0 2 -30 14 -67 13 -38 27 -93 31 -123 14 -102 9 -291 -11 -445 -2 -16 -6
-56 -9 -87 -21 -213 -16 -188 -69 -336 -40 -111 -68 -162 -87 -162 -3 0 -7 33
-7 73 0 48 -8 92 -23 132 -26 72 -37 114 -45 180 -4 28 -8 61 -10 75 -2 14 -7
45 -10 70 -4 25 -22 90 -41 145 -20 55 -37 107 -39 115 -52 204 -55 344 -10
453 12 30 -25 20 -59 -16z"/>
</g>
</svg>
